<svg width="24" height="24" viewBox="0 0 24 24" fill="none" xmlns="http://www.w3.org/2000/svg">
  <path d="M7 2a1 1 0 0 1 1 1v1h8V3a1 1 0 1 1 2 0v1h1.2A2.8 2.8 0 0 1 22 6.8v11.4a2.8 2.8 0 0 1-2.8 2.8H4.8A2.8 2.8 0 0 1 2 18.2V6.8A2.8 2.8 0 0 1 4.8 4H6V3a1 1 0 0 1 1-1Zm13 7H4v9.2c0 .44.36.8.8.8h14.4c.44 0 .8-.36.8-.8V9ZM4.8 6a.8.8 0 0 0-.8.8V7h16v-.2a.8.8 0 0 0-.8-.8H18v.6a1 1 0 1 1-2 0V6H8v.6a1 1 0 1 1-2 0V6H4.8Zm2.7 5h2a.5.5 0 0 1 .5.5v2a.5.5 0 0 1-.5.5h-2a.5.5 0 0 1-.5-.5v-2a.5.5 0 0 1 .5-.5Zm5 0h2a.5.5 0 0 1 .5.5v2a.5.5 0 0 1-.5.5h-2a.5.5 0 0 1-.5-.5v-2a.5.5 0 0 1 .5-.5Z" fill="currentColor"/>
</svg>
