<svg width="24" height="24" viewBox="0 0 24 24" fill="none" xmlns="http://www.w3.org/2000/svg">
<path fill-rule="evenodd" clip-rule="evenodd" d="M21 12C21 16.9706 16.9706 21 12 21C7.02944 21 3 16.9706 3 12C3 7.02944 7.02944 3 12 3C16.9706 3 21 7.02944 21 12ZM13 18C13 18.5523 12.5523 19 12 19C11.4477 19 11 18.5523 11 18C11 17.4477 11.4477 17 12 17C12.5523 17 13 17.4477 13 18ZM13.1836 10.5518C11.8797 10.9865 11 12.2065 11 13.5811V16H13V13.5811C13 13.0673 13.329 12.6107 13.8164 12.4482C15.1203 12.0135 16 10.7935 16 9.41895V8.90527C15.9998 6.74855 14.2514 5.00023 12.0947 5H12C9.79086 5 8 6.79086 8 9H10C10 7.89543 10.8954 7 12 7H12.0947C13.1469 7.00023 13.9998 7.85312 14 8.90527V9.41895C14 9.93272 13.671 10.3893 13.1836 10.5518Z" fill="#222222"/>
</svg>
