<svg width="1920" height="1920" viewBox="0 0 1920 1920" fill="none" xmlns="http://www.w3.org/2000/svg">
<g clip-path="url(#clip0_410_57)">
<rect width="1920" height="1920" fill="white"/>
<path d="M724.323 1818.99L721.404 1822.25C720.99 1822.71 720.99 1822.71 720.991 1822.72C720.992 1822.72 720.996 1822.72 720.998 1822.72C721.003 1822.73 721.008 1822.73 721.013 1822.74C721.023 1822.74 721.034 1822.75 721.045 1822.76C721.068 1822.78 721.094 1822.81 721.122 1822.83C721.179 1822.88 721.247 1822.93 721.325 1823C721.483 1823.12 721.686 1823.27 721.932 1823.44C722.421 1823.78 723.098 1824.18 723.947 1824.56C725.654 1825.32 728.113 1825.97 731.08 1825.57C737.185 1824.75 743.351 1819.88 749.077 1808.78C749.283 1808.38 749.969 1807.54 752.613 1807.58C755.223 1807.61 758.742 1808.61 762.363 1810.65C769.73 1814.82 775.537 1822.13 775.305 1830.35C775.075 1838.47 773.363 1844.09 771.052 1848.03C768.764 1851.93 765.726 1854.45 762.348 1856.13C755.297 1859.64 746.904 1859.48 740.671 1859.48C715.528 1859.48 691.539 1848.8 673.332 1830.92C654.528 1812.45 647.455 1791.77 647.516 1770.35C647.577 1748.71 654.92 1726.1 665.424 1704.16C680.788 1672.07 717.731 1642.22 751.695 1620.12C768.545 1609.15 784.416 1600.25 796.076 1594.09C801.903 1591.01 806.672 1588.62 809.977 1587.01C811.629 1586.2 812.915 1585.58 813.783 1585.17C814.217 1584.97 814.546 1584.81 814.766 1584.71C814.875 1584.66 814.957 1584.62 815.011 1584.6C815.037 1584.58 815.058 1584.57 815.07 1584.57C815.076 1584.57 815.08 1584.56 815.083 1584.56L815.085 1584.56L823.327 1580.78L815.73 1575.83L791.95 1560.33L789.556 1558.77L786.996 1560.04L789.201 1564.48C786.996 1560.04 786.995 1560.04 786.993 1560.04C786.992 1560.04 786.99 1560.04 786.987 1560.05C786.982 1560.05 786.975 1560.05 786.967 1560.06C786.949 1560.06 786.925 1560.08 786.893 1560.09C786.828 1560.13 786.733 1560.17 786.609 1560.23C786.362 1560.36 785.998 1560.54 785.525 1560.79C784.58 1561.27 783.199 1561.99 781.435 1562.92C777.906 1564.78 772.846 1567.53 766.691 1571.04C754.389 1578.06 737.681 1588.17 720.076 1600.56C702.483 1612.93 683.909 1627.63 667.919 1643.83C651.965 1660 638.349 1677.89 630.99 1696.68C618.632 1728.24 614.429 1756.41 618.509 1782.03C622.598 1807.71 634.934 1830.36 654.841 1850.96C663.413 1859.83 679.538 1870.55 697.951 1878.05C716.342 1885.54 737.873 1890.18 757.122 1885.86C768.776 1883.25 780.966 1878.31 790.072 1868.98C799.326 1859.5 804.917 1845.98 804.123 1827.28C803.267 1807.12 787.565 1792.1 770.473 1785.97C753.427 1779.86 732.523 1781.81 721.604 1798.79C718.15 1804.15 717.723 1809.74 718.083 1813.8C718.264 1815.83 718.647 1817.55 718.99 1818.77C719.163 1819.39 719.327 1819.89 719.456 1820.25C719.521 1820.43 719.576 1820.58 719.62 1820.69C719.642 1820.75 719.66 1820.8 719.676 1820.83C719.684 1820.85 719.691 1820.87 719.697 1820.89C719.7 1820.89 719.703 1820.9 719.705 1820.9C719.706 1820.91 719.708 1820.91 719.709 1820.91C719.709 1820.91 719.71 1820.92 719.71 1820.92L724.323 1818.99ZM724.323 1818.99L719.712 1820.92L720.146 1821.96L720.984 1822.71L724.323 1818.99Z" fill="#503929" stroke="#503929" stroke-width="10"/>
<path d="M1122.61 1234.76C1123.9 1242 1125.73 1252.35 1127.91 1264.81C1132.26 1289.75 1138 1323.12 1143.52 1356.89C1149.04 1390.67 1154.35 1424.81 1157.85 1451.3C1159.61 1464.55 1160.9 1475.82 1161.54 1484.14C1161.87 1488.31 1162.02 1491.64 1162 1494.08C1161.99 1495.3 1161.93 1496.21 1161.86 1496.83C1161.83 1497.06 1161.8 1497.21 1161.78 1497.3C1157.3 1505.87 1148.52 1520.54 1140.16 1533.71C1135.95 1540.34 1131.89 1546.53 1128.59 1551.32C1126.93 1553.71 1125.49 1555.72 1124.33 1557.24C1123.75 1558 1123.27 1558.61 1122.88 1559.07C1122.68 1559.3 1122.52 1559.47 1122.4 1559.6C1122.28 1559.73 1122.22 1559.78 1122.22 1559.78C1121.85 1560.11 1120.54 1560.99 1118.03 1562.45C1115.67 1563.83 1112.57 1565.53 1108.95 1567.46C1101.71 1571.31 1092.5 1575.99 1083.1 1580.61C1073.69 1585.24 1064.13 1589.79 1056.21 1593.4C1048.13 1597.07 1042.12 1599.58 1039.59 1600.32C1038.8 1600.55 1036.26 1600.98 1031.86 1601.53C1027.64 1602.05 1022.1 1602.64 1015.63 1603.25C1002.69 1604.48 986.158 1605.81 969.294 1606.92C952.425 1608.04 935.269 1608.94 921.087 1609.32C906.66 1609.71 895.931 1609.53 891.483 1608.69C887.734 1607.98 880.579 1605.43 871.342 1601.54C862.258 1597.71 851.569 1592.76 840.956 1587.51C830.343 1582.25 819.859 1576.72 811.181 1571.71C802.366 1566.63 795.805 1562.32 792.726 1559.52C779.432 1547.43 765.627 1522.91 754.692 1499.82C754.384 1499.17 753.941 1497.54 753.599 1494.55C753.273 1491.69 753.08 1488.02 753.021 1483.61C752.901 1474.8 753.315 1463.34 754.126 1450.13C755.746 1423.72 758.929 1390.6 762.461 1358.13C765.991 1325.68 769.862 1293.94 772.852 1270.3C774.346 1258.49 775.62 1248.7 776.52 1241.87C776.863 1239.27 777.152 1237.1 777.378 1235.4L1121.33 1227.61C1121.66 1229.45 1122.09 1231.85 1122.61 1234.76Z" fill="#9C7954" stroke="#503929" stroke-width="10"/>
<path d="M840.5 1268.52C891.159 1268.52 932 1308.49 932 1357.52C932 1406.55 891.159 1446.52 840.5 1446.52C789.841 1446.52 749 1406.55 749 1357.52C749 1308.49 789.841 1268.52 840.5 1268.52Z" fill="#F6F2E8" stroke="#503929" stroke-width="10"/>
<path d="M1041.5 1261.52C1094.56 1261.52 1137 1301.68 1137 1350.52C1137 1399.36 1094.56 1439.52 1041.5 1439.52C988.437 1439.52 946 1399.36 946 1350.52C946 1301.68 988.437 1261.52 1041.5 1261.52Z" fill="#F6F2E8" stroke="#503929" stroke-width="10"/>
<circle cx="1048" cy="1340" r="48" fill="#503929" stroke="#503929" stroke-width="10"/>
<circle cx="840" cy="1344" r="48" fill="#503929" stroke="#503929" stroke-width="10"/>
<path d="M1028.05 22.5239L1027.83 27.519C1028.05 22.6464 1028.05 22.5267 1028.06 22.5239C1028.06 22.524 1028.06 22.5247 1028.07 22.5249C1028.07 22.5252 1028.08 22.5254 1028.09 22.5259C1028.12 22.5269 1028.15 22.5279 1028.18 22.5298C1028.25 22.5336 1028.35 22.5395 1028.48 22.5474C1028.73 22.5631 1029.08 22.5885 1029.54 22.6265C1030.47 22.7025 1031.8 22.8304 1033.51 23.0435C1036.93 23.4695 1041.86 24.2337 1047.99 25.5903C1060.25 28.3033 1077.37 33.3902 1096.95 42.896C1136.17 61.9325 1185.14 98.6144 1224.92 169.061C1264.53 239.208 1277.17 296.81 1279.82 337.065C1280.96 354.24 1280.27 368.233 1279.1 378.67C1283.54 372.081 1288.72 363.792 1293.9 354.153C1307.73 328.408 1321.37 293.373 1321.37 255.519V238.3L1330.59 252.841C1387.34 342.309 1402.62 424.216 1408.35 513.198C1411.65 564.332 1405.37 602.184 1392.16 636.801C1381.08 665.851 1365.15 692.511 1346.32 722.577C1379.19 702.977 1402.75 685.043 1418.67 664.632C1437.08 641.015 1445.55 613.675 1445.55 575.519V557.021L1454.87 573C1527.84 698.107 1529.62 833.212 1474.15 991.67C1446.41 1070.91 1415.45 1121.28 1374.23 1159.36C1336.1 1194.57 1289.46 1218.98 1229.46 1246.16C1242.01 1248.33 1252.18 1249.23 1261.61 1249.09C1274.57 1248.91 1286.38 1246.79 1301.35 1243.16L1318.54 1238.99L1306.07 1251.54C1287.41 1270.34 1271.22 1283.83 1251.17 1292.26C1233.37 1299.75 1212.89 1303.1 1185.49 1303.15C1193.84 1313.81 1199.87 1323.28 1203.41 1333.15C1207.91 1345.71 1208.23 1358.46 1205.11 1374.48L1203.36 1383.4L1196.76 1377.15C1183.79 1364.86 1174.57 1354.95 1163.46 1347.03C1152.63 1339.31 1140.06 1333.59 1120.91 1330.45L1120.77 1330.43L1120.63 1330.4C1054.45 1315.63 1016.89 1310.29 946.134 1314.01L945.949 1314.02L945.765 1314.02C873.235 1312.47 834.701 1315.85 763.48 1328.94C736.767 1333.85 712.208 1333.27 688.043 1324.17C663.934 1315.09 640.687 1297.7 616.253 1269.81L603.79 1255.59L621.655 1261.8C642.113 1268.91 657.528 1271.63 673.549 1271.27C685.814 1271 698.578 1268.92 714.441 1265.42C685.82 1254.68 663.725 1245.55 642.701 1232.66C617.936 1217.47 594.87 1197.2 564.155 1163.38C504.825 1098.05 496.294 1035.06 496.294 960.519V941.814L505.627 958.024C526.639 994.518 551.758 1016.2 597.051 1038.45C571.947 1012.34 551.784 987.622 536.014 958.393C516.338 921.927 503.667 878.771 496.33 817.615C488.321 750.858 491.931 704.754 502.98 661.944C513.955 619.424 532.32 580.125 553.278 527.664L560.226 510.275L562.872 528.812C568.906 571.083 593.403 613.4 616.788 645.447C628.432 661.404 639.696 674.676 648.047 683.956C648.74 684.726 649.414 685.467 650.065 686.181C648.495 677.003 646.646 664.435 645.175 649.296C641.974 616.363 640.543 571.168 647.664 522.208C661.916 424.221 710.553 310.725 848.007 250.934C982.91 192.254 1025.55 136.129 1035.59 96.1421C1040.61 76.1503 1037.62 59.725 1033.42 48.3101C1031.32 42.5894 1028.91 38.1269 1027.04 35.1206C1026.11 33.619 1025.32 32.4852 1024.78 31.7456C1024.51 31.3761 1024.3 31.1057 1024.17 30.937C1024.1 30.8529 1024.05 30.7941 1024.03 30.7612C1024.02 30.7528 1024.01 30.7457 1024.01 30.7407L1016.67 22.0259L1028.05 22.5239Z" fill="#503929" stroke="#503929" stroke-width="10"/>
<path d="M179.023 740.941C179.917 752.42 181.358 768.227 183.581 786.012C188.087 822.077 195.848 866.729 208.913 899.874C220.324 928.821 241.086 962.449 258.822 988.65C267.719 1001.79 275.91 1013.15 281.879 1021.22C284.622 1024.93 286.899 1027.95 288.559 1030.13C286.731 1031.56 284.317 1033.45 281.414 1035.75C274.47 1041.24 264.725 1049.02 253.517 1058.2C231.12 1076.54 202.805 1100.51 179.314 1122.89C156.567 1144.56 136.615 1179.51 122.463 1208.58C115.346 1223.2 109.623 1236.49 105.677 1246.13C105.476 1246.62 105.283 1247.1 105.092 1247.57C102.606 1238.57 99.0681 1226.11 94.832 1212.1C86.3331 1184.01 74.9481 1149.49 63.5399 1124.43C53.1874 1101.68 38.0981 1072.2 25.632 1048.47C19.3922 1036.59 13.7972 1026.12 9.76166 1018.63C7.7438 1014.88 6.11474 1011.87 4.99047 1009.8C4.95932 1009.75 4.92901 1009.69 4.89863 1009.63C5.06462 1009.44 5.23981 1009.23 5.42284 1009.02C7.20632 1006.91 9.78974 1003.84 12.9948 1000.01C19.4047 992.33 28.3039 981.56 38.2637 969.18C58.1551 944.454 82.3827 913.176 99.4381 887.275C119.456 856.876 141.425 815.917 158.343 782.675C166.745 766.166 173.922 751.516 179.023 740.941Z" fill="#9C7954" stroke="#503929" stroke-width="10"/>
<path d="M494.42 1594.63C389.155 1661.91 279.916 1606.12 215.862 1552.18C177.742 1520.08 137.166 1457.19 121.52 1411.33C91.487 1323.31 101.659 1239.52 101.659 1239.52L111.093 1241.02C114.071 1280.47 115.815 1328.2 125.988 1363.88C146.347 1435.31 176.636 1481.26 227.779 1519.71C305.822 1578.4 396.224 1618.2 489.455 1555.67C543.082 1519.71 563.634 1483.13 625.01 1475.26C679.809 1468.23 753.118 1497.74 753.118 1497.74L770 1530.2C770 1530.2 719.353 1498.24 629.976 1511.22C570.391 1519.88 537.61 1567.03 494.42 1594.63Z" fill="#503929" stroke="#503929" stroke-width="10"/>
<path d="M131.5 976.519C142.175 976.519 151 985.378 151 996.519C151 1007.66 142.175 1016.52 131.5 1016.52C120.825 1016.52 112 1007.66 112 996.519C112 985.378 120.825 976.519 131.5 976.519Z" fill="#503929" stroke="#503929" stroke-width="10"/>
<path d="M902.026 1639.95C902.026 1649.51 898.301 1658.11 893.084 1665.89C887.892 1673.64 880.973 1680.95 874.142 1687.92C867.192 1695.01 860.354 1701.74 854.729 1708.71C849.119 1715.67 845.085 1722.44 843.499 1729.38C840.584 1742.13 841.02 1755.83 845.954 1767C850.791 1777.96 860.074 1786.83 875.811 1790.23C888.945 1793.07 900.187 1786.34 904.788 1778.31C907.068 1774.33 907.47 1770.51 906.35 1767.53C905.4 1765 903.026 1762.21 897.865 1760.25C897.573 1760.63 897.252 1761.06 896.861 1761.57C896.294 1762.32 895.62 1763.19 894.883 1764.04C893.546 1765.57 891.38 1767.77 888.43 1768.64C886.814 1769.12 885.024 1769.18 883.198 1768.61C881.426 1768.06 879.913 1767 878.629 1765.71C875.55 1762.61 874.141 1758.81 874.815 1754.84C875.438 1751.18 877.702 1748.19 880.151 1746.01C885.005 1741.67 892.519 1738.73 899.007 1738.73C908.415 1738.73 914.695 1742.4 918.627 1747.66C922.322 1752.6 923.582 1758.49 924.23 1762.36C927.233 1780.31 921.2 1794.68 910.36 1803.95C899.691 1813.07 884.74 1816.95 870.147 1815.04C834.939 1810.44 806.547 1775.07 812.893 1733.49C816.197 1711.84 826.379 1700.04 838.05 1689.05C849.642 1678.14 862.231 1668.33 872.903 1649.92C877.922 1641.26 876.752 1631.76 873.868 1623.82C872.443 1619.9 870.661 1616.55 869.228 1614.17C868.514 1612.99 867.896 1612.06 867.466 1611.45C867.251 1611.14 867.084 1610.91 866.977 1610.76C866.923 1610.69 866.884 1610.64 866.861 1610.61C866.85 1610.59 866.843 1610.58 866.84 1610.58L866.843 1610.58L856.591 1597.37L872.414 1602.79L898.646 1611.77L902.026 1612.93V1639.95Z" fill="#503929" stroke="#503929" stroke-width="10"/>
<path d="M1191.68 1818.99L1194.6 1822.25C1195.01 1822.71 1195.01 1822.71 1195.01 1822.72C1195.01 1822.72 1195 1822.72 1195 1822.72C1195 1822.73 1194.99 1822.73 1194.99 1822.74C1194.98 1822.74 1194.97 1822.75 1194.96 1822.76C1194.93 1822.78 1194.91 1822.81 1194.88 1822.83C1194.82 1822.88 1194.75 1822.93 1194.67 1823C1194.52 1823.12 1194.31 1823.27 1194.07 1823.44C1193.58 1823.78 1192.9 1824.18 1192.05 1824.56C1190.35 1825.32 1187.89 1825.97 1184.92 1825.57C1178.82 1824.75 1172.65 1819.88 1166.92 1808.78C1166.72 1808.38 1166.03 1807.54 1163.39 1807.58C1160.78 1807.61 1157.26 1808.61 1153.64 1810.65C1146.27 1814.82 1140.46 1822.13 1140.7 1830.35C1140.93 1838.47 1142.64 1844.09 1144.95 1848.03C1147.24 1851.93 1150.27 1854.45 1153.65 1856.13C1160.7 1859.64 1169.1 1859.48 1175.33 1859.48C1200.47 1859.48 1224.46 1848.8 1242.67 1830.92C1261.47 1812.45 1268.54 1791.77 1268.48 1770.35C1268.42 1748.71 1261.08 1726.1 1250.58 1704.16C1235.21 1672.07 1198.27 1642.22 1164.3 1620.12C1147.45 1609.15 1131.58 1600.25 1119.92 1594.09C1114.1 1591.01 1109.33 1588.62 1106.02 1587.01C1104.37 1586.2 1103.09 1585.58 1102.22 1585.17C1101.78 1584.97 1101.45 1584.81 1101.23 1584.71C1101.13 1584.66 1101.04 1584.62 1100.99 1584.6C1100.96 1584.58 1100.94 1584.57 1100.93 1584.57C1100.92 1584.57 1100.92 1584.56 1100.92 1584.56L1100.92 1584.56L1092.67 1580.78L1100.27 1575.83L1124.05 1560.33L1126.44 1558.77L1129 1560.04L1126.8 1564.48C1129 1560.04 1129.01 1560.04 1129.01 1560.04C1129.01 1560.04 1129.01 1560.04 1129.01 1560.05C1129.02 1560.05 1129.02 1560.05 1129.03 1560.06C1129.05 1560.06 1129.08 1560.08 1129.11 1560.09C1129.17 1560.13 1129.27 1560.17 1129.39 1560.23C1129.64 1560.36 1130 1560.54 1130.47 1560.79C1131.42 1561.27 1132.8 1561.99 1134.57 1562.92C1138.09 1564.78 1143.15 1567.53 1149.31 1571.04C1161.61 1578.06 1178.32 1588.17 1195.92 1600.56C1213.52 1612.93 1232.09 1627.63 1248.08 1643.83C1264.04 1660 1277.65 1677.89 1285.01 1696.68C1297.37 1728.24 1301.57 1756.41 1297.49 1782.03C1293.4 1807.71 1281.07 1830.36 1261.16 1850.96C1252.59 1859.83 1236.46 1870.55 1218.05 1878.05C1199.66 1885.54 1178.13 1890.18 1158.88 1885.86C1147.22 1883.25 1135.03 1878.31 1125.93 1868.98C1116.67 1859.5 1111.08 1845.98 1111.88 1827.28C1112.73 1807.12 1128.44 1792.1 1145.53 1785.97C1162.57 1779.86 1183.48 1781.81 1194.4 1798.79C1197.85 1804.15 1198.28 1809.74 1197.92 1813.8C1197.74 1815.83 1197.35 1817.55 1197.01 1818.77C1196.84 1819.39 1196.67 1819.89 1196.54 1820.25C1196.48 1820.43 1196.42 1820.58 1196.38 1820.69C1196.36 1820.75 1196.34 1820.8 1196.32 1820.83C1196.32 1820.85 1196.31 1820.87 1196.3 1820.89C1196.3 1820.89 1196.3 1820.9 1196.29 1820.9C1196.29 1820.91 1196.29 1820.91 1196.29 1820.91C1196.29 1820.91 1196.29 1820.92 1196.29 1820.92L1191.68 1818.99ZM1191.68 1818.99L1196.29 1820.92L1195.85 1821.96L1195.02 1822.71L1191.68 1818.99Z" fill="#503929" stroke="#503929" stroke-width="10"/>
<path d="M1737.16 740.941C1736.27 752.42 1734.83 768.227 1732.6 786.012C1728.1 822.077 1720.34 866.729 1707.27 899.874C1695.86 928.821 1675.1 962.449 1657.36 988.65C1648.46 1001.79 1640.27 1013.15 1634.3 1021.22C1631.56 1024.93 1629.28 1027.95 1627.62 1030.13C1629.45 1031.56 1631.87 1033.45 1634.77 1035.75C1641.71 1041.24 1651.46 1049.02 1662.67 1058.2C1685.06 1076.54 1713.38 1100.51 1736.87 1122.89C1759.62 1144.56 1779.57 1179.51 1793.72 1208.58C1800.84 1223.2 1806.56 1236.49 1810.51 1246.13C1810.71 1246.62 1810.9 1247.1 1811.09 1247.57C1813.58 1238.57 1817.12 1226.11 1821.35 1212.1C1829.85 1184.01 1841.24 1149.49 1852.64 1124.43C1863 1101.68 1878.09 1072.2 1890.55 1048.47C1896.79 1036.59 1902.39 1026.12 1906.42 1018.63C1908.44 1014.88 1910.07 1011.87 1911.19 1009.8C1911.22 1009.75 1911.25 1009.69 1911.28 1009.63C1911.12 1009.44 1910.94 1009.23 1910.76 1009.02C1908.98 1006.91 1906.39 1003.84 1903.19 1000.01C1896.78 992.33 1887.88 981.56 1877.92 969.18C1858.03 944.454 1833.8 913.176 1816.75 887.275C1796.73 856.876 1774.76 815.917 1757.84 782.675C1749.44 766.166 1742.26 751.516 1737.16 740.941Z" fill="#9C7954" stroke="#503929" stroke-width="10"/>
<path d="M1421.99 1594.63C1527.41 1661.91 1636.82 1606.12 1700.96 1552.18C1739.14 1520.08 1779.78 1457.19 1795.45 1411.33C1825.53 1323.31 1815.34 1239.52 1815.34 1239.52L1805.89 1241.02C1802.91 1280.47 1801.16 1328.2 1790.97 1363.88C1770.58 1435.31 1740.25 1481.26 1689.03 1519.71C1610.87 1578.4 1520.33 1618.2 1426.96 1555.67C1373.26 1519.71 1352.67 1483.13 1291.21 1475.26C1236.33 1468.23 1162.91 1497.74 1162.91 1497.74L1146 1530.2C1146 1530.2 1196.72 1498.24 1286.23 1511.22C1345.91 1519.88 1378.74 1567.03 1421.99 1594.63Z" fill="#503929" stroke="#503929" stroke-width="10"/>
<path d="M1784.5 976.519C1773.83 976.519 1765 985.378 1765 996.519C1765 1007.66 1773.83 1016.52 1784.5 1016.52C1795.17 1016.52 1804 1007.66 1804 996.519C1804 985.378 1795.17 976.519 1784.5 976.519Z" fill="#503929" stroke="#503929" stroke-width="10"/>
<path d="M1014.2 1639.95C1014.2 1649.53 1017.96 1658.13 1023.23 1665.91C1028.47 1673.66 1035.46 1680.97 1042.36 1687.94C1049.37 1695.03 1056.28 1701.76 1061.96 1708.73C1067.62 1715.69 1071.69 1722.46 1073.29 1729.39C1076.24 1742.13 1075.79 1755.82 1070.82 1766.99C1065.94 1777.93 1056.56 1786.82 1040.64 1790.23C1027.32 1793.08 1015.95 1786.32 1011.31 1778.29C1009.01 1774.32 1008.61 1770.51 1009.73 1767.55C1010.69 1765.01 1013.11 1762.21 1018.38 1760.23C1018.68 1760.62 1019.01 1761.06 1019.42 1761.59C1019.99 1762.34 1020.67 1763.21 1021.41 1764.05C1022.77 1765.59 1024.95 1767.78 1027.9 1768.65C1029.52 1769.12 1031.31 1769.18 1033.13 1768.62C1034.91 1768.07 1036.43 1767.02 1037.72 1765.73C1040.82 1762.63 1042.26 1758.83 1041.57 1754.83C1040.94 1751.16 1038.65 1748.17 1036.18 1745.99C1031.29 1741.66 1023.72 1738.73 1017.2 1738.73C1007.73 1738.73 1001.41 1742.38 997.438 1747.64C993.706 1752.58 992.432 1758.48 991.777 1762.35C988.742 1780.33 994.846 1794.71 1005.78 1803.97C1016.54 1813.08 1031.62 1816.95 1046.32 1815.05C1081.81 1810.45 1110.51 1775.11 1104.1 1733.49C1100.76 1711.82 1090.47 1700.02 1078.7 1689.03C1066.99 1678.12 1054.28 1668.31 1043.5 1649.9C1038.44 1641.25 1039.62 1631.77 1042.53 1623.83C1043.97 1619.92 1045.77 1616.57 1047.21 1614.19C1047.93 1613.01 1048.56 1612.08 1048.99 1611.46C1049.21 1611.16 1049.38 1610.93 1049.49 1610.78C1049.54 1610.71 1049.58 1610.66 1049.6 1610.63C1049.61 1610.61 1049.62 1610.6 1049.62 1610.6L1049.62 1610.6L1059.97 1597.4L1044.08 1602.78L1017.59 1611.77L1014.2 1612.92V1639.95Z" fill="#503929" stroke="#503929" stroke-width="10"/>
<path d="M1125.43 285.524C1126.04 288.412 1126.61 291.38 1127.14 294.421C1133.56 331.251 1133.44 378.11 1108.22 419.917C1033.74 543.38 973.023 647.414 937.687 773.147C916.109 849.922 894.054 967.284 895.499 1063.58C896.592 1136.41 912.74 1199.21 928.601 1243.79C936.534 1266.09 944.403 1283.85 950.302 1296.06C952.537 1300.69 954.492 1304.52 956.059 1307.5H910.406C910.192 1306.94 909.95 1306.31 909.685 1305.61C908.432 1302.3 906.631 1297.38 904.457 1291.03C900.108 1278.33 894.266 1259.87 888.319 1236.93C876.422 1191.05 864.127 1127.32 862.499 1055.89C860.209 955.398 881.197 843.601 911.236 754.599C938.023 675.233 1001.73 553.672 1108.13 397.819C1117.24 384.469 1122.17 367.03 1124.61 348.821C1127.05 330.545 1127.04 311.064 1125.97 293.298C1125.81 290.669 1125.63 288.075 1125.43 285.524Z" fill="#F6F2E8" stroke="#F6F2E8" stroke-width="10"/>
<path d="M178 745.519C147.808 829.246 138.314 891.102 132 980.519" stroke="#503929" stroke-width="10"/>
<path d="M1738 745.519C1768.19 829.246 1777.69 891.102 1784 980.519" stroke="#503929" stroke-width="10"/>
</g>
<defs>
<clipPath id="clip0_410_57">
<rect width="1920" height="1920" fill="white"/>
</clipPath>
</defs>
</svg>
