<svg width="1920" height="1920" viewBox="0 0 1920 1920" fill="none" xmlns="http://www.w3.org/2000/svg">
<g clip-path="url(#clip0_678_63)">
<rect width="1920" height="1920" fill="#FFE5B0"/>
<path d="M2062.75 1595.97L-0.00219357 1932.84L2011.39 1706.03L2062.75 1595.97Z" fill="#FFCF01"/>
<path d="M80.2478 -112L-16 1976L225 -77.5L80.2478 -112Z" fill="#FFCF01"/>
<path d="M441.906 -57.6107L-30.0003 1978.64L578.043 2.47412L441.906 -57.6107Z" fill="#FFCF01"/>
<path d="M1994.98 1300.32L4.99676 1939.38L1960.51 1416.78L1994.98 1300.32Z" fill="#FFCF01"/>
<path d="M776 -38L-24 1951L2020 1097.5L2064 -11L776 -38Z" fill="#FFCF01"/>
<path d="M420.909 56.7287C503.961 163.795 521.472 241.985 526.232 299.541C531.655 365.095 521.015 418.42 494.386 463.985C467.714 509.622 424.729 547.943 364.653 582.957L363.023 583.907L362.423 585.71C332.567 675.49 311.829 726.13 288.097 767.818C264.339 809.552 237.52 842.447 195.042 896.886C98.1526 1021.06 127.899 1152.5 162.594 1292.04C197.353 1431.83 237.318 1580.48 166.897 1743.56L98.395 1809.78C116.805 1770.51 134.031 1724.41 147.19 1680.76C163.338 1627.19 173.602 1576.52 172.019 1546.55C168.938 1488.22 156.561 1429.2 142.483 1370.51C128.37 1311.67 112.594 1253.32 102.439 1195.66C82.1659 1080.56 84.5992 969.774 167.67 868.295C213.149 812.739 242.466 780.273 263.693 742.364C285.05 704.222 298.192 660.702 312.262 582.868L312.722 580.32L310.939 578.462L309.197 576.64C272.844 538.464 249.753 504.548 240.476 466.442C231.065 427.783 235.692 384.046 256.56 326.079C263.614 306.485 275.646 288.797 290.447 270.765C297.842 261.755 305.872 252.727 314.269 243.349C322.646 233.994 331.388 224.293 340.102 214.044C373.376 174.911 406.528 127.47 420.909 56.7287Z" fill="#9C9C9C" stroke="black" stroke-width="10"/>
<path d="M1869.27 1349.48C1737.79 1296.99 1653.71 1300.7 1594.05 1311.37C1526.02 1323.54 1471.52 1347.66 1430.78 1385.64C1390.07 1423.59 1362.72 1475.75 1349.62 1544.68L1349.33 1546.25L1348.17 1547.35C1275.28 1616.76 1245.6 1643.11 1220.38 1665.25C1195.25 1687.31 1174.6 1705.13 1119.67 1757.55C1067.6 1807.25 1005.08 1824.29 934.815 1824.08C864.774 1823.88 786.571 1806.55 702.759 1787.22C535.092 1748.56 343.933 1701.7 143.495 1762.79L95.7395 1823.6C138.147 1811.07 190.254 1798.91 239.924 1789.55C295.655 1779.05 348.714 1772.01 381.69 1772.01C447.082 1772.01 514.983 1785.52 583.142 1802.51C651.557 1819.55 719.829 1839.96 787.123 1854.22C921.442 1882.66 1048.59 1885.76 1154.62 1787.4C1212.88 1733.35 1224.25 1716.53 1242.32 1697.23C1260.53 1677.8 1284.94 1656.58 1368.17 1594.72L1370.5 1592.99L1373.18 1594.13L1378.01 1596.17C1427.66 1617.1 1467.34 1630.49 1507.08 1630.6C1547.88 1630.71 1589.38 1616.81 1642.2 1581.12C1660.11 1569.02 1674.69 1552.59 1688.84 1533.38C1695.91 1523.78 1702.82 1513.56 1709.99 1502.89C1717.13 1492.25 1724.53 1481.16 1732.48 1469.94C1762.88 1427.13 1801.69 1382.26 1869.27 1349.48Z" fill="#9C9C9C" stroke="black" stroke-width="10"/>
<path d="M754.659 1603.9C752.826 1603.76 750.416 1603.57 747.48 1603.36C740.19 1602.83 729.654 1602.16 716.638 1601.55C690.611 1600.32 654.641 1599.34 614.877 1600.34C535.663 1602.33 440.249 1612.15 378.777 1644.23C322.248 1673.73 248.101 1719.33 188.185 1757.49C158.206 1776.58 131.75 1793.83 112.789 1806.31C109.744 1808.32 106.893 1810.2 104.251 1811.94C106 1809.4 107.886 1806.65 109.892 1803.71C122.399 1785.41 139.681 1759.89 158.789 1730.98C196.978 1673.2 242.555 1601.76 271.826 1547.48C303.445 1488.84 312.394 1397.26 313.62 1321.1C314.236 1282.87 312.905 1248.27 311.42 1223.22C310.678 1210.69 309.897 1200.55 309.301 1193.54C309.052 1190.6 308.832 1188.2 308.664 1186.42L965.43 971.989L754.659 1603.9Z" fill="#FEFEFE" stroke="black" stroke-width="10"/>
<path d="M552.096 1368.79C574.882 1390.48 611.151 1389.79 633.105 1367.26C655.058 1344.74 654.383 1308.89 631.598 1287.21C608.812 1265.52 572.542 1266.2 550.589 1288.73C528.635 1311.26 529.31 1347.1 552.096 1368.79Z" fill="black" stroke="black" stroke-width="10"/>
<path d="M120.499 1797L573.734 1356.85" stroke="black" stroke-width="10" stroke-linecap="round"/>
<path d="M825.511 767.13C920.259 858.377 924.875 1006.99 836.211 1099.05C747.547 1191.12 598.869 1192.1 504.121 1100.85C409.374 1009.6 404.759 860.996 493.423 768.93C582.087 676.864 730.763 675.884 825.511 767.13Z" fill="#FEFEFE" stroke="black" stroke-width="10"/>
<circle cx="673.826" cy="932.086" r="131.711" transform="rotate(43.9216 673.826 932.086)" fill="#9C9C9C" stroke="black" stroke-width="10"/>
<path d="M1164.85 1084.13C1259.6 1175.38 1264.22 1323.99 1175.55 1416.05C1086.89 1508.12 938.213 1509.1 843.465 1417.85C748.717 1326.6 744.103 1178 832.767 1085.93C921.431 993.864 1070.11 992.884 1164.85 1084.13Z" fill="#FEFEFE" stroke="black" stroke-width="10"/>
<circle cx="1024.65" cy="1243.01" r="132.159" transform="rotate(43.9216 1024.65 1243.01)" fill="#9C9C9C" stroke="black" stroke-width="10"/>
<path d="M1087.89 1355.47C1036.73 1390.29 963.319 1375.73 921.779 1320.39C880.239 1265.05 886.76 1190.5 934.48 1151.09L1087.89 1355.47Z" fill="black" stroke="black" stroke-width="10"/>
<path d="M737.89 1047.47C686.731 1082.29 613.319 1067.73 571.779 1012.39C530.239 957.054 536.76 882.496 584.48 843.095L737.89 1047.47Z" fill="black" stroke="black" stroke-width="10"/>
<path d="M2521.55 -659.691C2678.76 -213.805 2484.88 102.332 2228.7 226.178C2338.96 199.422 2412.79 166.806 2531.33 88.8603L2541.09 82.4458L2539.38 93.5079C2523.57 195.934 2448.34 322.008 2352.98 419.816C2305.24 468.78 2252.25 510.877 2198.81 539.481C2155.14 562.853 2110.88 577.359 2068.8 579.003C2076.58 579.835 2085.54 579.493 2095.47 578.106C2117.72 574.995 2143.28 566.849 2167.64 557.233C2191.95 547.638 2214.81 536.687 2231.61 528.121C2240.01 523.842 2246.88 520.165 2251.64 517.561C2254.03 516.259 2255.88 515.226 2257.14 514.52C2257.77 514.167 2258.24 513.896 2258.56 513.714C2258.72 513.623 2258.84 513.555 2258.92 513.509C2258.96 513.487 2258.99 513.47 2259.01 513.46C2259.02 513.454 2259.03 513.45 2259.03 513.447C2259.03 513.446 2259.04 513.446 2259.04 513.445C2259.04 513.451 2259.15 513.615 2261.72 517.571L2259.04 513.444L2269.83 507.238L2266.72 518.752C2197.23 776.095 2006.09 926.682 1854.49 963.184C1871.83 968.135 1887.77 973.152 1900.39 977.288C1908.98 980.103 1916.04 982.513 1920.95 984.22C1923.4 985.074 1925.32 985.753 1926.63 986.218C1927.29 986.451 1927.79 986.631 1928.13 986.753C1928.3 986.814 1928.43 986.86 1928.52 986.892C1928.56 986.907 1928.59 986.919 1928.62 986.927C1928.63 986.931 1928.64 986.935 1928.64 986.937C1928.64 986.938 1928.65 986.939 1928.65 986.939L1928.65 986.94C1928.65 986.94 1928.65 986.941 1926.94 991.076L1928.65 986.94L1934.82 989.179L1930.98 994.253C1860.12 1088.05 1765.77 1124.95 1669.55 1130.19C1605.32 1133.69 1540.29 1123.09 1480.75 1106.03C1489.26 1110.54 1497.34 1115.32 1505 1120.76C1533.51 1140.97 1555.64 1169.68 1574.6 1225.14L1576.09 1229.49L1571.53 1231.14C1529.28 1246.46 1499.92 1256 1478.46 1260.31C1456.97 1264.63 1442.47 1263.92 1430.59 1257.71C1419.08 1251.69 1410.86 1240.85 1400.96 1227.64C1394.92 1219.59 1388.03 1210.31 1379.15 1199.92C1387.07 1228.83 1383.2 1262.33 1372.42 1293.72C1357.86 1336.15 1330.23 1376.13 1299.4 1397.76L1293.83 1401.66L1291.48 1395.53C1245.26 1275.43 1144.84 1190.47 1055.51 1135.43C1010.89 1107.94 969.167 1088 938.605 1074.93C923.328 1068.39 910.849 1063.58 902.204 1060.41C897.881 1058.82 894.517 1057.65 892.243 1056.87C891.106 1056.48 890.241 1056.19 889.664 1056C889.376 1055.91 889.16 1055.84 889.018 1055.79C888.947 1055.77 888.894 1055.75 888.861 1055.74C888.844 1055.73 888.832 1055.73 888.824 1055.73L888.816 1055.72L886.418 1054.96L885.604 1052.71C885.604 1052.7 885.603 1052.7 885.602 1052.7C885.599 1052.69 885.595 1052.68 885.589 1052.66C885.576 1052.63 885.556 1052.57 885.529 1052.5C885.475 1052.35 885.392 1052.13 885.28 1051.83C885.056 1051.24 884.717 1050.35 884.258 1049.18C883.341 1046.85 881.95 1043.4 880.067 1039.01C876.301 1030.21 870.57 1017.62 862.734 1002.47C847.057 972.146 822.983 931.648 789.403 890.906C722.211 809.383 617.385 727.348 465.903 723.081L458.935 722.885L461.194 716.684C475.725 676.799 496.39 653.645 521.54 642.691C543.359 633.188 567.707 633.245 592.689 638.359C578.774 611.159 570.246 581.909 562.583 556.665C558.268 542.451 554.252 529.582 549.712 518.801C545.147 507.96 540.259 499.757 534.485 494.534L527.226 487.967L537.159 486.278C587.602 477.706 613.697 482.29 637.683 493.988C649.316 499.662 660.499 507.046 673.35 514.834C683.366 520.904 694.679 527.404 708.605 533.988C663.71 444.536 641.201 374.498 656.961 304.544C673.422 231.475 731.363 159.657 845.316 66.193L854.342 58.7905L853.85 70.025C851.846 115.761 853.616 148.782 862.017 177.209C869.318 201.914 881.708 223.414 901.486 246.882C902.164 174.501 917.451 114.811 945.144 64.316C974.553 10.6922 1017.79 -32.2731 1071.76 -68.9849C1179.41 -142.222 1330.56 -191.026 1501.22 -249.972L1512.11 -253.733L1507.77 -243.625C1469.09 -153.598 1447.7 -96.3013 1428.63 -26.2526C1479.85 -140.109 1533.55 -222.229 1604.17 -285.153C1686.65 -358.655 1791.74 -405.556 1941.54 -446.71L1954.76 -450.343L1947.31 -439.452C1891.08 -357.29 1865.23 -305.771 1842.76 -231.215C1874.94 -279.847 1914.92 -308.938 1959.89 -328.469C2014.73 -352.283 2077.19 -361.893 2140.78 -375.77C2204.67 -389.712 2270.46 -408.057 2333.75 -449.178C2396.99 -490.268 2458.09 -554.343 2512.01 -660.24L2517.54 -671.086L2521.55 -659.691Z" fill="#9C9C9C" stroke="black" stroke-width="10"/>
<path d="M1416.48 547.024C1413.97 547.494 1411.2 548.029 1408.25 548.633C1394.63 551.414 1376.93 555.612 1360.56 561.278C1343.25 567.271 1332.53 571.266 1323.33 575.598C1316 579.052 1309.62 582.727 1301.61 587.814C1331.88 573.089 1363.16 562.267 1387.43 555.009C1398.98 551.552 1408.96 548.903 1416.48 547.024Z" fill="black" stroke="black"/>
<path d="M1544.52 545.477C1543.23 545.413 1541.79 545.347 1540.21 545.285C1532.58 544.986 1521.74 544.752 1508.86 545.012C1483.11 545.532 1449.29 548.026 1416.94 555.913C1382.75 564.248 1359.36 572.056 1338.38 581.047C1321.11 588.447 1305.46 596.656 1286.73 606.641C1347.83 579.14 1411.96 563.837 1461.92 555.365C1488.66 550.83 1511.35 548.25 1527.35 546.804C1534.48 546.16 1540.28 545.744 1544.52 545.477Z" fill="black" stroke="black"/>
<path d="M1226.63 1023.77C1225.87 1023.64 1225.08 1023.51 1224.25 1023.38C1217.39 1022.34 1208.41 1021.48 1199.87 1022.21C1190.79 1022.98 1185.16 1023.7 1180.21 1025.08C1176.62 1026.08 1173.37 1027.43 1169.42 1029.42C1185.39 1024.81 1201.17 1023.51 1213.36 1023.41C1218.51 1023.36 1223.02 1023.54 1226.63 1023.77Z" fill="black" stroke="black"/>
<path d="M1286.06 1040.93C1282.55 1039.69 1277.98 1038.18 1272.67 1036.66C1260.09 1033.05 1243.4 1029.39 1226.91 1029.15C1209.44 1028.89 1198.48 1029.24 1188.53 1031.13C1179.87 1032.77 1171.97 1035.58 1161.22 1040.2C1195.03 1032.69 1227.42 1033.13 1251.73 1035.55C1264.53 1036.83 1275.09 1038.65 1282.46 1040.16C1283.76 1040.43 1284.96 1040.69 1286.06 1040.93Z" fill="black" stroke="black"/>
<path d="M1663 1548C1561 1641.5 1460.5 1628.5 1391.5 1586.5C1391.5 1586.5 1514 1385.5 1693 1393.5C1647 1430 1652 1456 1652 1456C1655.5 1438.5 1716.24 1386.88 1847 1353.5C1749.5 1402.5 1704.68 1509.8 1663 1548Z" fill="black" stroke="black"/>
<path d="M742.156 1589.48C626.201 1582.1 485.382 1582.9 369.215 1639.85C472.234 1560.65 593.714 1565.73 718.535 1557L718.798 1556.98L718.931 1556.75L809.699 1402.4L742.156 1589.48Z" fill="black" stroke="black"/>
<path d="M1081.73 1315.83C1101.26 1325.91 1116.95 1338.39 1126.57 1350.22C1131.39 1356.14 1134.54 1361.71 1136 1366.56C1137.46 1371.38 1137.18 1375.17 1135.69 1378.05C1134.2 1380.94 1131.28 1383.36 1126.5 1384.96C1121.7 1386.58 1115.34 1387.24 1107.72 1386.74C1092.5 1385.75 1073.24 1380.19 1053.71 1370.1C1034.17 1360.02 1018.49 1347.54 1008.86 1335.71C1004.05 1329.79 1000.9 1324.22 999.435 1319.37C997.979 1314.55 998.259 1310.76 999.748 1307.88C1001.24 1304.99 1004.16 1302.57 1008.93 1300.97C1013.74 1299.35 1020.1 1298.69 1027.72 1299.19C1042.94 1300.18 1062.2 1305.74 1081.73 1315.83Z" fill="#FEFEFE" stroke="black" stroke-width="10"/>
<path d="M734.729 1015.83C754.262 1025.91 769.947 1038.39 779.572 1050.22C784.39 1056.14 787.535 1061.71 789.002 1066.56C790.458 1071.38 790.179 1075.17 788.689 1078.05C787.199 1080.94 784.275 1083.36 779.503 1084.96C774.698 1086.58 768.338 1087.24 760.72 1086.74C745.5 1085.75 726.241 1080.19 706.708 1070.1C687.175 1060.02 671.489 1047.54 661.864 1035.71C657.046 1029.79 653.902 1024.22 652.435 1019.37C650.979 1014.55 651.259 1010.76 652.748 1007.88C654.238 1004.99 657.162 1002.57 661.935 1000.97C666.739 999.352 673.099 998.69 680.717 999.188C695.936 1000.18 715.196 1005.74 734.729 1015.83Z" fill="#FEFEFE" stroke="black" stroke-width="10"/>
<path d="M1903 994.5C1792.5 1130.5 1612 1136 1401.5 1056C1573.5 1069.5 1618.5 1068 1711.5 1017.5C1656.5 1028.5 1599.5 999.5 1577.5 985C1577.5 985 1822 890.5 1939.5 667.5L2006 786.5C1956.07 909.048 1911.37 951.851 1771 954.5C1823.6 964.007 1852.73 971.269 1903 994.5Z" fill="black" stroke="black"/>
<path d="M853.5 1065C853.228 1028.55 845.618 994.757 833 956.5L886 1051.5L979.5 1098C936.719 1082.66 899.008 1070.3 853.5 1065Z" fill="black" stroke="black"/>
<path d="M1297.5 1379C1219.5 1202 1076.5 1138 879 1052.5C969.945 1027.04 1165 1072.5 1243.5 1124C1216.8 1085.44 1196.31 1068 1145 1048C1209.5 1035 1301.28 1048.09 1331.5 1056.79C1432.92 1088.33 1508 1112.5 1563 1219.5C1426 1275 1425 1231.5 1358 1165C1374 1229 1372.5 1323.5 1297.5 1379Z" fill="black" stroke="black"/>
<path d="M1378.22 122C1378.22 122 1391.99 13 1459.21 -25.0001C1526.43 -63.0003 1413.93 -86.8601 1395 -32.9993C1376.07 20.8616 1374.31 55.7953 1378.22 122Z" fill="black" stroke="black"/>
<path d="M425.949 275.108C425.617 278.817 425.092 283.604 424.271 289.064C422.326 302.007 418.722 318.712 412.091 333.811C405.068 349.803 400.197 359.634 394.348 367.9C389.26 375.09 383.421 381.109 374.746 388.973C395.629 361.333 408.683 331.694 416.578 308.571C420.733 296.401 423.462 286.033 425.151 278.704C425.45 277.409 425.713 276.207 425.949 275.108Z" fill="black" stroke="black"/>
<path d="M1484.39 1456.85C1483.72 1457.24 1483.03 1457.65 1482.31 1458.08C1476.37 1461.65 1468.91 1466.73 1462.79 1472.74C1456.3 1479.12 1452.42 1483.27 1449.49 1487.5C1447.37 1490.56 1445.73 1493.67 1443.96 1497.72C1453.31 1483.99 1464.63 1472.9 1473.94 1465.05C1477.88 1461.73 1481.46 1458.98 1484.39 1456.85Z" fill="black" stroke="black"/>
<path d="M1541.09 1432.13C1537.59 1433.42 1533.11 1435.18 1528.05 1437.39C1516.07 1442.65 1500.88 1450.48 1488.03 1460.83C1474.43 1471.78 1466.21 1479.04 1459.75 1486.85C1454.14 1493.63 1449.85 1500.84 1444.52 1511.27C1465.76 1483.9 1490.97 1463.56 1511.23 1449.91C1521.89 1442.72 1531.19 1437.38 1537.82 1433.84C1539 1433.21 1540.09 1432.65 1541.09 1432.13Z" fill="black" stroke="black"/>
<path d="M2031.5 203.386C1890.99 174.085 1727.75 210.637 1582.01 290.687C1436.06 370.852 1307.6 494.673 1237.05 639.781L1236.37 641.183L1237.74 640.439L1237.5 640C1237.72 640.412 1237.74 640.438 1237.74 640.438C1237.74 640.438 1237.74 640.436 1237.75 640.435C1237.75 640.431 1237.76 640.426 1237.77 640.42C1237.8 640.407 1237.83 640.388 1237.88 640.362C1237.98 640.311 1238.12 640.235 1238.31 640.135C1238.69 639.934 1239.25 639.636 1239.99 639.249C1241.48 638.476 1243.68 637.349 1246.55 635.933C1252.27 633.1 1260.63 629.111 1271.17 624.489C1292.25 615.246 1322.04 603.473 1356.89 593.355C1425.35 573.479 1513.27 560.013 1592.98 584.592C1353.08 563.919 1180.08 705.946 1073.12 792.548C1262.51 440.09 1549.56 108.953 2031.5 -22.3447V203.386Z" fill="black" stroke="black"/>
<path d="M560 1372C381.5 1530 388 1537.14 134 1781L560 1372Z" fill="black" stroke="black" stroke-width="10"/>
<path d="M358.599 574C532.602 485 566.102 299 450.102 120C450.102 188.5 474.019 226.759 459.099 299C460.978 259.959 452.138 238.971 425.596 202.5C465.602 332.5 347.102 438 338.602 473.5C330.102 509 336.598 545.5 358.599 574Z" fill="black" stroke="black"/>
<path d="M395.876 334.974C395.607 335.698 395.32 336.453 395.015 337.234C392.49 343.692 388.741 351.897 383.84 358.934C378.635 366.407 375.196 370.925 371.522 374.524C368.861 377.132 366.066 379.264 362.369 381.691C374.344 370.168 383.371 357.152 389.55 346.653C392.165 342.211 394.27 338.216 395.876 334.974Z" fill="black" stroke="black"/>
</g>
<rect x="30" y="30" width="1860" height="1860" stroke="black" stroke-width="60"/>
<defs>
<clipPath id="clip0_678_63">
<rect width="1920" height="1920" fill="white"/>
</clipPath>
</defs>
</svg>
