<svg width="1920" height="1920" viewBox="0 0 1920 1920" fill="none" xmlns="http://www.w3.org/2000/svg">
<g clip-path="url(#clip0_462_104)">
<path d="M55.0898 1349.48C186.562 1296.99 270.647 1300.7 330.31 1311.37C398.332 1323.53 452.836 1347.66 493.573 1385.64C534.282 1423.59 561.635 1475.75 574.731 1544.68L575.028 1546.24L576.188 1547.35C649.074 1616.75 678.751 1643.11 703.971 1665.24C729.108 1687.31 749.755 1705.13 804.683 1757.55C856.769 1807.26 919.224 1824 989.387 1823.37C1059.32 1822.74 1137.38 1804.84 1221.04 1784.95C1388.41 1745.16 1579.27 1697.18 1779.7 1758.27L1831.89 1823.54C1789.35 1811.03 1736.54 1798.89 1686.17 1789.55C1629.56 1779.05 1575.64 1772 1542.67 1772C1477.27 1772 1409.37 1785.52 1341.21 1802.5C1272.8 1819.55 1204.53 1839.96 1137.23 1854.21C1002.91 1882.66 875.764 1885.76 769.736 1787.4C711.472 1733.35 700.109 1716.52 682.032 1697.23C663.825 1677.8 639.417 1656.58 556.186 1594.71L553.854 1592.98L551.177 1594.12L546.341 1596.17C496.692 1617.1 457.017 1630.48 417.28 1630.59C376.479 1630.71 334.974 1616.8 282.155 1581.12C264.245 1569.02 249.664 1552.58 235.517 1533.38C228.447 1523.78 221.534 1513.56 214.37 1502.89C207.223 1492.24 199.828 1481.15 191.871 1469.94C161.478 1427.12 122.662 1382.25 55.0898 1349.48Z" fill="#1D2022" stroke="#1D2022" stroke-width="10"/>
<path d="M1177.07 1593.64C1184.38 1593.12 1194.65 1592.47 1207.18 1591.88C1233.4 1590.64 1269.64 1589.66 1309.73 1590.66C1388.98 1592.65 1486.69 1602.44 1550.57 1635.77C1607.53 1665.5 1682.01 1711.31 1741.94 1749.48C1756.88 1759 1770.95 1768.05 1783.65 1776.29C1775.4 1764.04 1766.34 1750.48 1756.82 1736.08C1718.61 1678.28 1672.83 1606.53 1643.34 1551.84C1610.54 1491.01 1601.66 1397.37 1600.43 1321.23C1599.81 1282.71 1601.15 1247.87 1602.65 1222.66C1603.38 1210.25 1604.16 1200.16 1604.76 1193.09L974.876 987.442L1177.07 1593.64Z" fill="#F6F6F6" stroke="#1D2022" stroke-width="30"/>
<path d="M1372.26 1368.79C1349.48 1390.48 1313.21 1389.79 1291.25 1367.26C1269.3 1344.74 1269.97 1308.89 1292.76 1287.21C1315.55 1265.52 1351.81 1266.2 1373.77 1288.73C1395.72 1311.26 1395.05 1347.1 1372.26 1368.79Z" fill="#1D2022" stroke="#1D2022" stroke-width="10"/>
<path d="M1747 1730.74L1350.63 1356.85" stroke="#1D2022" stroke-width="40" stroke-linecap="round"/>
<path d="M1107.52 776.138C1017.52 862.812 1013.49 1003.51 1097.15 1090.38C1180.81 1177.26 1321.57 1178.53 1411.57 1091.85C1501.56 1005.18 1505.59 864.477 1421.93 777.605C1338.27 690.733 1197.52 689.464 1107.52 776.138Z" fill="#F6F6F6" stroke="#1D2022" stroke-width="35"/>
<circle cx="136.711" cy="136.711" r="119.211" transform="matrix(-0.720289 0.693674 0.693674 0.720289 1254.17 738.781)" fill="#1D2022" stroke="#1D2022" stroke-width="35"/>
<path d="M768.175 1093.14C678.176 1179.81 674.147 1320.51 757.808 1407.38C841.471 1494.26 982.224 1495.53 1072.22 1408.85C1162.22 1322.18 1166.25 1181.48 1082.59 1094.6C998.927 1007.73 858.175 1006.46 768.175 1093.14Z" fill="#F6F6F6" stroke="#1D2022" stroke-width="35"/>
<circle cx="137.159" cy="137.159" r="119.659" transform="matrix(-0.720289 0.693674 0.693674 0.720289 903.361 1049.07)" fill="#1D2022" stroke="#1D2022" stroke-width="35"/>
<path d="M-595.664 -664.63C-739.642 -256.268 -591.944 46.0745 -368.407 192.841C-439.665 169.066 -502.319 136.551 -589.755 79.0573L-619.024 59.8117L-613.903 93C-597.698 198.022 -521.076 325.824 -424.895 424.472C-400.462 449.532 -374.608 472.875 -347.951 493.611L-341.032 519.237C-275.482 762.005 -102.638 911.985 46.6578 961.517C41.3572 963.187 36.3966 964.785 31.8655 966.27C23.2096 969.108 16.094 971.538 11.1308 973.263C8.64892 974.126 6.70389 974.813 5.37188 975.287C4.70586 975.524 4.19251 975.707 3.8424 975.833C3.66734 975.896 3.53281 975.945 3.44028 975.979C3.39418 975.995 3.3579 976.008 3.33278 976.017C3.32036 976.021 3.31059 976.025 3.30339 976.027C3.29976 976.029 3.29637 976.03 3.29408 976.031C3.29303 976.031 3.29173 976.032 3.2912 976.032C3.29108 976.034 3.35826 976.199 8.55224 988.76L3.28906 976.033L-15.2086 982.748L-3.70969 997.969C69.2157 1094.5 166.649 1132.6 265.555 1137.98C312.88 1140.56 360.501 1135.66 406.024 1126.25C384.203 1146.97 366.573 1175.49 351.265 1220.28L346.798 1233.35L360.449 1238.3C402.659 1253.6 432.723 1263.41 455.079 1267.9C477.539 1272.42 495.031 1272.18 510.118 1264.29C523.54 1257.28 532.876 1245.05 542.036 1232.83C542.282 1253.57 546.587 1274.82 553.442 1294.8C568.474 1338.6 597.135 1380.5 630.119 1403.63L646.821 1415.35L653.893 1396.97C699.032 1279.66 797.386 1196.15 885.834 1141.66C929.919 1114.5 971.161 1094.78 1001.36 1081.87C1016.45 1075.41 1028.75 1070.67 1037.24 1067.55C1041.49 1066 1044.78 1064.85 1046.98 1064.09C1048.08 1063.72 1048.91 1063.44 1049.45 1063.26C1049.72 1063.17 1049.92 1063.11 1050.05 1063.07C1050.11 1063.05 1050.15 1063.03 1050.18 1063.02C1050.19 1063.02 1050.19 1063.02 1050.2 1063.02L1050.2 1063.02L1057.39 1060.72L1059.83 1053.97C1059.83 1053.97 1059.83 1053.96 1059.84 1053.95C1059.85 1053.92 1059.86 1053.88 1059.89 1053.81C1059.93 1053.69 1060.01 1053.48 1060.11 1053.21C1060.32 1052.65 1060.65 1051.8 1061.09 1050.68C1061.97 1048.42 1063.33 1045.07 1065.17 1040.76C1068.86 1032.15 1074.5 1019.77 1082.21 1004.84C1097.67 974.945 1121.39 935.054 1154.43 894.969C1220.6 814.687 1322.87 735.032 1470.11 730.885L1491.01 730.295L1484.23 711.693C1469.15 670.289 1447.02 644.475 1418.45 632.033C1400.54 624.233 1381.43 622.287 1362.22 623.884L1364.05 620.685L1361.21 621.419C1370.56 599.221 1377.13 576.819 1383.01 557.465C1387.34 543.186 1391.23 530.772 1395.55 520.506C1399.95 510.062 1404.18 503.413 1408.35 499.641L1430.13 479.94L1400.33 474.875C1348.35 466.043 1319.79 470.56 1293.23 483.517C1281.02 489.47 1269.09 497.327 1256.72 504.819C1254.43 506.211 1252.06 507.621 1249.62 509.049C1285.94 431.527 1303.6 366.375 1288.8 300.686C1271.6 224.335 1211.37 150.73 1097.13 57.031L1070.05 34.8213L1071.53 68.5249C1073.52 113.98 1071.69 145.781 1063.73 172.724C1059.25 187.865 1052.74 201.805 1043.42 215.983C1039.4 155.045 1024.41 103.095 999.693 58.0229C969.383 2.75606 924.918 -41.3052 869.951 -78.6984C760.842 -152.924 607.965 -202.224 437.992 -260.934L405.322 -272.218L418.35 -241.895C433.747 -206.057 446.384 -175.455 457.215 -147.188C422.198 -205.717 383.878 -253.691 338.594 -294.044C254.401 -369.07 147.519 -416.529 -2.99138 -457.878L-42.6591 -468.776L-20.2983 -436.105C21.2851 -375.346 46.0005 -331.697 65.0851 -282.851C39.6143 -307.908 10.9885 -325.714 -19.91 -339.132C-76.0164 -363.497 -140.181 -373.413 -202.799 -387.077C-266.289 -400.932 -330.558 -418.944 -392.225 -459.013C-453.75 -498.988 -513.759 -561.645 -567.04 -666.277L-583.61 -698.815L-595.664 -664.63Z" fill="#1D2022" stroke="#1D2022" stroke-width="30"/>
<path d="M1555.53 63.7326C1472.48 170.799 1454.97 248.989 1450.21 306.545C1444.78 372.099 1455.42 425.424 1482.05 470.989C1508.73 516.626 1551.71 554.947 1611.79 589.961L1613.42 590.911L1614.02 592.713C1643.9 682.567 1663.65 734.012 1686.89 776.107C1710.11 818.157 1736.91 851.05 1781.28 903.745C1865.18 1003.39 1841.2 1128.46 1809.29 1272.19C1777.29 1416.32 1736.75 1580.86 1781.97 1764.04L1836.43 1816.87C1827.47 1778.26 1819.31 1730.52 1813.43 1685.05C1806.67 1632.76 1802.86 1583.05 1804.42 1553.55C1807.5 1495.22 1819.88 1436.2 1833.96 1377.51C1848.07 1318.68 1863.85 1260.32 1874 1202.66C1894.27 1087.56 1891.84 976.778 1808.77 875.299C1763.29 819.743 1733.97 787.277 1712.75 749.368C1691.39 711.226 1678.25 667.706 1664.18 589.872L1663.72 587.324L1665.5 585.466L1667.24 583.644C1703.6 545.468 1726.69 511.552 1735.96 473.446C1745.37 434.787 1740.75 391.05 1719.88 333.083C1712.83 313.489 1700.79 295.801 1685.99 277.769C1678.6 268.759 1670.57 259.731 1662.17 250.353C1653.79 240.998 1645.05 231.297 1636.34 221.048C1603.06 181.915 1569.91 134.474 1555.53 63.7326Z" fill="#1D2022" stroke="#1D2022" stroke-width="10"/>
</g>
<defs>
<clipPath id="clip0_462_104">
<rect width="1920" height="1920" fill="white"/>
</clipPath>
</defs>
</svg>
